# xmcd CD database file
#
# Track frame offsets:
#	150
#	28028
#	44701
#	68090
#	86162
#	103819
#	128738
#	148179
#	168890
#	185945
#	202512
#	219820
#	238309
#	255589
#	274834
#
# Disc length: 4052 seconds
#
# Revision: 2
# Processed by: cddbd v1.4PL0 Copyright (c) Steve Scherf et al.
# Submitted via: Feurio! 1.65 - http://www.feurio.com
#
DISCID=e00fd20f
DTITLE=Xavier Naidoo - Zwischenspiel - Alles für den Herrn CD2 of 2
DYEAR=2002
DGENRE=Hip-Hop
TTITLE0=Himmel Ueber Deutschland
TTITLE1=Ich Lass Sie Sterben
TTITLE2=Bevor Du Gehst
TTITLE3=I'd Be Waiting
TTITLE4=Sie Ist Im Viereck Angelegt
TTITLE5=Eyes R Shut
TTITLE6=Der Geist Ist Willig
TTITLE7=Maegde Und Knechte
TTITLE8=Der Herr Knickt Alle Baeume
TTITLE9=Wer Weiss Schon Was Der Morgen
TTITLE10=Alles Fuer Den Herrn
TTITLE11=Wo Driften Wir Hin
TTITLE12=Klagelieder
TTITLE13=Lied (Du Nur Du)
TTITLE14=Wenn Du Es Willst
EXTD=
EXTT0=
EXTT1=
EXTT2=
EXTT3=
EXTT4=
EXTT5=
EXTT6=
EXTT7=
EXTT8=
EXTT9=
EXTT10=
EXTT11=
EXTT12=
EXTT13=
EXTT14=
PLAYORDER=
